<?xml version="1.0" encoding="UTF-8" standalone="no"?>
<!-- Created with Inkscape (http://www.inkscape.org/) -->

<svg
   xmlns:dc="http://purl.org/dc/elements/1.1/"
   xmlns:cc="http://creativecommons.org/ns#"
   xmlns:rdf="http://www.w3.org/1999/02/22-rdf-syntax-ns#"
   xmlns:svg="http://www.w3.org/2000/svg"
   xmlns="http://www.w3.org/2000/svg"
   xmlns:sodipodi="http://sodipodi.sourceforge.net/DTD/sodipodi-0.dtd"
   xmlns:inkscape="http://www.inkscape.org/namespaces/inkscape"
   width="210mm"
   height="297mm"
   viewBox="0 0 210 297"
   version="1.1"
   id="svg8"
   inkscape:version="0.92.4 (5da689c313, 2019-01-14)"
   sodipodi:docname="drawing.svg">
  <defs
     id="defs2" />
  <sodipodi:namedview
     id="base"
     pagecolor="#ffffff"
     bordercolor="#666666"
     borderopacity="1.0"
     inkscape:pageopacity="0.0"
     inkscape:pageshadow="2"
     inkscape:zoom="0.49497475"
     inkscape:cx="-982.12823"
     inkscape:cy="712.02743"
     inkscape:document-units="mm"
     inkscape:current-layer="layer1"
     showgrid="false"
     inkscape:window-width="1920"
     inkscape:window-height="1017"
     inkscape:window-x="-8"
     inkscape:window-y="-8"
     inkscape:window-maximized="1" />
  <metadata
     id="metadata5">
    <rdf:RDF>
      <cc:Work
         rdf:about="">
        <dc:format>image/svg+xml</dc:format>
        <dc:type
           rdf:resource="http://purl.org/dc/dcmitype/StillImage" />
        <dc:title />
      </cc:Work>
    </rdf:RDF>
  </metadata>
  <g
     inkscape:label="zero"
     inkscape:groupmode="layer"
     id="layer1"
     style="display:inline">
    <g
       transform="matrix(0.35277777,0,0,-0.35277777,58.425057,163.11093)"
       inkscape:label="ink_ext_XXXXXX"
       id="g18">
      <g
         transform="matrix(0.1,0,0,0.1,-73.928573,16.071429)"
         id="g20">
        <path
           inkscape:connector-curvature="0"
           id="path22"
           style="fill:#211d1d;fill-opacity:1;fill-rule:nonzero;stroke:none"
           d="m -80.864694,3822.1611 c -217.679996,-63.24 -355.430006,-208.99 -368.600006,-390.12 -8.49,-117.02 46.35,-209.59 131.31001,-312.58 67.87,-82.28 119.08,-116.37 226.619996,-87.31 193.490004,52.2 331.560004,237.33 321.160004,430.61 -5.15,95.86 -66.1,239.4 -159.170004,313.68 -48.63,38.81 -99.56,54.17 -151.32,45.72 z m -78.829996,-850.22 c -82.81,0 -138,44.13 -197.03,115.7 -80.14001,97.14 -152.88001,206.54 -142.60001,348.02 14.76,203.27 166.53001,365.86 405.960006,434.93 l 2.71,0.62 c 66.01,11.34 132.48,-7.94 192.300004,-55.69 107.96,-86.18 172.24,-244.68 177.91,-350.07 11.64,-216.32 -142.3,-423.36 -358.060004,-481.58 -29.989996,-8.1 -56.799996,-11.93 -81.189996,-11.93" />
      </g>
      <path
         transform="matrix(0.1,0,0,0.1,-73.928571,16.071461)"
         inkscape:connector-curvature="0"
         id="path26"
         style="fill:#211d1d;fill-opacity:1;fill-rule:nonzero;stroke:none"
         d="m -51.019086,4124.6571 c -9.49,0 -19.17,-0.96 -28.92,-2.86 -1.13,-0.22 -2.25,-0.5 -3.37,-0.77 -1.52,-0.36 -3.03,-0.72 -4.56,-1.03 l -1.61,-0.28 c -30.100004,-4.19 -60.130004,-11.95 -89.260004,-23.03 l -1.41,-0.49 c -258.41,-81.19 -455.27,-266.5 -526.63,-495.74 -80.33,-258.16 20.17,-551.35 262.3,-765.17 218.5,-192.95 555.32,-100.63 761.29,84.19 203.17,182.32 284.06,465.76 206.11,722.12 -69.97,230.05 -301.88,479.69 -554.529996,481.88 l -2.8,0.18 c -5.46,0.66 -11,1 -16.61,1 z m -99.760004,-1446.14 c -117.44,0 -231.9,35.5 -326.78,119.29 -257.11,227.03 -363.24,540.28 -276.96,817.51 76.16,244.67 284.98,442.14 558.69,528.36 32.09,12.16 65.19,20.71 98.430004,25.42 l 2.45,0.56 c 1.81,0.44 3.62,0.86 5.44,1.22 20.15,3.92 40.24,4.8 59.72,2.58 278.449996,-3.27 523.899996,-265.33 600.539996,-517.31 83.59,-274.87 -2.98,-578.64 -220.54,-773.88 -134.31,-120.52 -321.149996,-203.75 -500.99,-203.75 z"
         sodipodi:nodetypes="sccccccccccccsscccccccccs" />
    </g>
  </g>
  <g
     inkscape:groupmode="layer"
     id="layer3"
     inkscape:label="Layer 2"
     style="opacity:1">
    <g
       inkscape:groupmode="layer"
       id="layer2"
       inkscape:label="cross"
       style="display:none">
      <path
         inkscape:connector-curvature="0"
         id="path26-8"
         style="fill:#211d1d;fill-opacity:1;fill-rule:nonzero;stroke:none;stroke-width:0.03527778"
         d="m 19.543365,97.945199 c -1.55857,0 -3.07728,0.717902 -4.1469,1.803752 -1.41146,1.433339 -2.16994,3.702759 -0.0663,5.774619 l 17.52176,17.25401 -0.45649,0.61595 c -5.13468,6.92573 -9.9755,13.94636 -14.3891,20.86715 -1.46544,2.2987 -0.1524,4.28837 1.56563,5.38374 2.52871,1.6129 6.18948,1.64289 7.93715,-1.09749 3.79518,-5.95171 7.85424,-11.91613 12.06464,-17.72672 l 0.60184,-0.83079 18.23826,17.95955 c 2.4391,2.40242 5.78521,1.63689 7.69513,-0.30233 1.41147,-1.43333 2.17064,-3.7031 0.067,-5.77462 l -20.07412,-19.76719 0.47908,-0.61912 c 4.94488,-6.39022 10.08556,-12.62239 15.27916,-18.52366 0.76094,-0.8643 0.7648,-1.82174 0.63463,-2.47332 -0.26353,-1.317629 -1.30069,-2.591863 -2.64229,-3.246617 -2.98239,-1.455562 -6.06002,-0.164748 -7.65775,1.650294 -4.28731,4.871153 -8.57638,10.014653 -12.74762,15.287273 l -0.60996,0.77117 -15.74482,-15.504583 c -1.07386,-1.057275 -2.3234,-1.501068 -3.54895,-1.501068 z m 3.75955,54.571541 c -1.63124,0 -3.29212,-0.50059 -4.67924,-1.385 -2.50896,-1.59985 -4.13279,-4.63797 -2.10467,-7.81932 4.30459,-6.75005 9.01382,-13.59464 14.00316,-20.35316 l -16.42957,-16.17909 c -2.8395,-2.79577 -2.02212,-6.16762 0.0469,-8.269115 2.54565,-2.583746 7.05238,-3.411363 10.19034,-0.321381 l 14.34465,14.125576 c 3.99803,-5.02779 8.09766,-9.93175 12.19588,-14.588068 2.026,-2.301523 5.94325,-3.93206 9.75572,-2.0701 1.84642,0.900994 3.22509,2.619727 3.59868,4.485568 0.29456,1.4725 -0.0748,2.88749 -1.04034,3.98463 -5.00168,5.68325 -9.95398,11.67483 -14.72882,17.81951 l 18.95792,18.66829 c 2.83879,2.79576 2.02176,6.16761 -0.0476,8.26911 -2.54457,2.58445 -7.05202,3.41136 -10.18963,0.32173 l -16.77529,-16.51917 c -3.97475,5.51921 -7.80874,11.16965 -11.40496,16.8088 -1.34443,2.10891 -3.49179,3.02084 -5.69313,3.02119 z"
         sodipodi:nodetypes="ccccccccccccccccccccscccccccccccccccccccscc" />
    </g>
  </g>
</svg>
