<?xml version="1.0" encoding="utf-8"?>
<!-- Generator: Adobe Illustrator 21.0.0, SVG Export Plug-In . SVG Version: 6.00 Build 0)  -->
<svg version="1.1" xmlns="http://www.w3.org/2000/svg" xmlns:xlink="http://www.w3.org/1999/xlink" x="0px" y="0px"
	 viewBox="0 0 1400 980" style="enable-background:new 0 0 1400 980;" xml:space="preserve">
<style type="text/css">
	.st0{fill:#B6E0DB;}
	.st1{fill:#39B54A;}
	.st2{fill:#156817;}
	.st3{fill:#FFFFFF;}
	.st4{fill:#D02C2D;}
	.st5{fill:#6B181E;}
</style>
<g id="Background">
	<rect class="st0" width="1400" height="980"/>
</g>
<g id="Object">
</g>
<g id="text">
	<g>
		<g>
			<circle class="st1" cx="420.2" cy="446.4" r="238.3"/>
			<path class="st2" d="M600.8,338.6c0,0-6.4-12.8-9.8-16l-6.7-6.3c-7.1-6.7-18.2-6.5-25.1,0.4L411.6,464.8
				c-6.9,6.9-18.1,7.1-25.2,0.3l-62.2-59.5c-6.3-6.1-16.1-6.7-23.2-1.4l-50.2,37.4c-9.4,7-9.7,21.1-0.5,28.5c0,0,5.5,12.6,9.8,16
				L395,593.4c7.8,6.2,19,4.9,25.2-2.8l182.2-227.7C608.4,355.6,607.6,345.1,600.8,338.6z"/>
			<path class="st3" d="M590.9,322.6l-6.7-6.3c-7.1-6.7-18.2-6.5-25.1,0.4L411.6,464.8c-6.9,6.9-18.1,7.1-25.2,0.3l-62.2-59.5
				c-6.3-6.1-16.1-6.7-23.2-1.4l-50.2,37.4c-9.4,7-9.7,21.1-0.5,28.5l134.7,107.4c7.8,6.2,19,4.9,25.2-2.8l182.3-227.7
				C598.5,339.6,597.8,329,590.9,322.6z"/>
			<g>
				<circle class="st3" cx="420.2" cy="684.6" r="87.3"/>
				<g>
					<path class="st1" d="M450.3,684.4c-4.6-2.3-10.4-14.4-12.7-18.5c-2.3-4-12.6-17.1-17-21.3c-4.4-4.2-8.3-26.3-8.3-26.3
						c-1.7-4.7-10.2-1.6-12.7,8.6c-1.7,6.8-0.9,18.5,3.8,26.3c4.1,6.8,2.4,16.2,2.4,16.2s-18.1-0.9-29.3,1.8
						c-11.2,2.7-6.2,16.7-6.2,16.7c-6.6,8.3,2.6,15.4,2.6,15.4c-7.5,12.1,3.8,16.3,3.8,16.3c-2.9,2.1-2.1,9.5,0,11.3
						c3.8,3.3,12.9,1.9,20,2.5c7.1,0.6,25.8,4,38.5,1.2s23.8-5.2,23.8-5.2c3.3-11.7,1.5-41.7,1.5-41.7S454.9,686.7,450.3,684.4z"/>
					<path class="st1" d="M479.1,686.1c-0.5-0.5-11.8-1.9-14.9,0.7c0,0,0.8,17.6,0.7,29.3s-3,20.1-3,20.1s6.3,1.7,11.2-1.6
						c4.9-3.4,7-11,7.8-19.4C481.7,706.7,479.6,686.6,479.1,686.1z"/>
				</g>
			</g>
		</g>
		<g>
			<circle class="st4" cx="979.8" cy="446.4" r="238.3"/>
			<path class="st5" d="M1073.6,474c-5.5-5.5-5.5-14.4,0-19.9l57.6-57.6c5.5-5.5,5.5-14.4,0-19.9l-41.8-41.8
				c-4-4-22.2-10.8-22.2-10.8c-5.5-5.5-14.4-5.5-19.9,0l-57.6,57.6c-1.5,1.5-3.3,2.6-5.3,3.3l-50.1-50.1c-4-4-22.2-10.8-22.2-10.8
				c-5.5-5.5-14.4-5.5-19.9,0l-41.8,41.8c-5.5,5.5-5.5,14.4,0,19.9l57.6,57.6c5.5,5.5,5.5,14.4,0,19.9l-57.6,57.6
				c-5.5,5.5-5.5,14.4,0,19.9l41.8,41.8c4,4,22.2,10.8,22.2,10.8c5.5,5.5,14.4,5.5,19.9,0l57.6-57.6c1.5-1.5,3.3-2.6,5.3-3.3
				l50.1,50.1c4,4,22.2,10.8,22.2,10.8c5.5,5.5,14.4,5.5,19.9,0l41.8-41.8c5.5-5.5,5.5-14.4,0-19.9L1073.6,474z"/>
			<circle class="st3" cx="979.8" cy="684.6" r="87.3"/>
			<g>
				<path class="st4" d="M949.7,684.9c4.6,2.3,10.4,14.4,12.7,18.5c2.3,4,12.6,17.1,17,21.3s8.3,26.3,8.3,26.3
					c1.7,4.7,10.2,1.6,12.7-8.6c1.7-6.8,0.9-18.5-3.8-26.3c-4.1-6.8-2.4-16.2-2.4-16.2s18.1,0.9,29.3-1.8
					c11.2-2.7,6.2-16.7,6.2-16.7c6.6-8.3-2.6-15.4-2.6-15.4c7.5-12.1-3.8-16.3-3.8-16.3c2.9-2.1,2.1-9.5,0-11.3
					c-3.8-3.3-12.9-1.9-20-2.5c-7.1-0.6-25.8-4-38.5-1.2s-23.8,5.2-23.8,5.2c-3.3,11.7-1.5,41.7-1.5,41.7S945.1,682.6,949.7,684.9z"
					/>
				<path class="st4" d="M920.9,683.2c0.5,0.5,11.8,1.9,14.9-0.7c0,0-0.8-17.6-0.7-29.3c0.1-11.7,3-20.1,3-20.1s-6.3-1.7-11.2,1.6
					c-4.9,3.4-7,11-7.8,19.4S920.4,682.7,920.9,683.2z"/>
			</g>
			<path class="st3" d="M1051.4,463.1c-5.5-5.5-5.5-14.4,0-19.9l57.6-57.6c5.5-5.5,5.5-14.4,0-19.9l-41.8-41.8
				c-5.5-5.5-14.4-5.5-19.9,0l-57.6,57.6c-5.5,5.5-14.4,5.5-19.9,0L912.3,324c-5.5-5.5-14.4-5.5-19.9,0l-41.8,41.8
				c-5.5,5.5-5.5,14.4,0,19.9l57.6,57.6c5.5,5.5,5.5,14.4,0,19.9l-57.6,57.6c-5.5,5.5-5.5,14.4,0,19.9l41.8,41.8
				c5.5,5.5,14.4,5.5,19.9,0l57.6-57.6c5.5-5.5,14.4-5.5,19.9,0l57.6,57.6c5.5,5.5,14.4,5.5,19.9,0l41.8-41.8
				c5.5-5.5,5.5-14.4,0-19.9L1051.4,463.1z"/>
		</g>
	</g>
</g>
</svg>
