<?xml version="1.0" encoding="UTF-8" standalone="no"?>
<!-- Created with Inkscape (http://www.inkscape.org/) -->

<svg
   xmlns:dc="http://purl.org/dc/elements/1.1/"
   xmlns:cc="http://creativecommons.org/ns#"
   xmlns:rdf="http://www.w3.org/1999/02/22-rdf-syntax-ns#"
   xmlns:svg="http://www.w3.org/2000/svg"
   xmlns="http://www.w3.org/2000/svg"
   xmlns:sodipodi="http://sodipodi.sourceforge.net/DTD/sodipodi-0.dtd"
   xmlns:inkscape="http://www.inkscape.org/namespaces/inkscape"
   width="210mm"
   height="297mm"
   viewBox="0 0 210 297"
   version="1.1"
   id="svg8"
   inkscape:version="0.92.4 (5da689c313, 2019-01-14)"
   sodipodi:docname="cross.svg">
  <defs
     id="defs2" />
  <sodipodi:namedview
     id="base"
     pagecolor="#ffffff"
     bordercolor="#666666"
     borderopacity="1.0"
     inkscape:pageopacity="0.0"
     inkscape:pageshadow="2"
     inkscape:zoom="0.49497475"
     inkscape:cx="-394.5177"
     inkscape:cy="712.02743"
     inkscape:document-units="mm"
     inkscape:current-layer="layer2"
     showgrid="false"
     inkscape:window-width="1920"
     inkscape:window-height="1017"
     inkscape:window-x="-8"
     inkscape:window-y="-8"
     inkscape:window-maximized="1" />
  <metadata
     id="metadata5">
    <rdf:RDF>
      <cc:Work
         rdf:about="">
        <dc:format>image/svg+xml</dc:format>
        <dc:type
           rdf:resource="http://purl.org/dc/dcmitype/StillImage" />
        <dc:title></dc:title>
      </cc:Work>
    </rdf:RDF>
  </metadata>
  <g
     inkscape:groupmode="layer"
     id="layer3"
     inkscape:label="Layer 2"
     style="opacity:1">
    <g
       inkscape:groupmode="layer"
       id="layer2"
       inkscape:label="cross"
       style="display:inline">
      <path
         inkscape:connector-curvature="0"
         id="path26-8"
         style="fill:#211d1d;fill-opacity:1;fill-rule:nonzero;stroke:none;stroke-width:0.03527778"
         d="m 15.801592,9.7462555 c -1.55857,0 -3.07728,0.7179025 -4.1469,1.8037525 -1.41146,1.433339 -2.1699404,3.702759 -0.0663,5.774619 l 17.52176,17.25401 -0.45649,0.61595 c -5.13468,6.92573 -9.9755,13.94636 -14.3891,20.86715 -1.46544,2.2987 -0.1524,4.28837 1.56563,5.38374 2.52871,1.6129 6.18948,1.64289 7.93715,-1.09749 3.79518,-5.95171 7.85424,-11.91613 12.06464,-17.72672 l 0.60184,-0.83079 18.23826,17.95955 c 2.4391,2.40242 5.78521,1.63689 7.69513,-0.30233 1.41147,-1.43333 2.17064,-3.7031 0.067,-5.77462 l -20.07412,-19.76719 0.47908,-0.61912 c 4.94488,-6.39022 10.08556,-12.62239 15.27916,-18.52366 0.76094,-0.8643 0.7648,-1.82174 0.63463,-2.47332 -0.26353,-1.317629 -1.30069,-2.5918635 -2.64229,-3.2466175 -2.98239,-1.455562 -6.06002,-0.164748 -7.65775,1.6502945 -4.28731,4.871153 -8.57638,10.014653 -12.74762,15.287273 l -0.60996,0.77117 -15.74482,-15.504583 c -1.07386,-1.057275 -2.3234,-1.5010685 -3.54895,-1.5010685 z m 3.75955,54.5715415 c -1.63124,0 -3.29212,-0.50059 -4.67924,-1.385 -2.50896,-1.59985 -4.13279,-4.63797 -2.10467,-7.81932 4.30459,-6.75005 9.01382,-13.59464 14.00316,-20.35316 l -16.42957,-16.17909 c -2.8395004,-2.79577 -2.0221204,-6.16762 0.0469,-8.269115 2.54565,-2.5837465 7.05238,-3.4113635 10.19034,-0.3213815 l 14.34465,14.1255765 c 3.99803,-5.02779 8.09766,-9.93175 12.19588,-14.5880685 2.026,-2.301523 5.94325,-3.93206 9.75572,-2.0701 1.84642,0.900994 3.22509,2.6197275 3.59868,4.4855685 0.29456,1.4725 -0.0748,2.88749 -1.04034,3.98463 -5.00168,5.68325 -9.95398,11.67483 -14.72882,17.81951 l 18.95792,18.66829 c 2.83879,2.79576 2.02176,6.16761 -0.0476,8.26911 -2.54457,2.58445 -7.05202,3.41136 -10.18963,0.32173 l -16.77529,-16.51917 c -3.97475,5.51921 -7.80874,11.16965 -11.40496,16.8088 -1.34443,2.10891 -3.49179,3.02084 -5.69313,3.02119 z"
         sodipodi:nodetypes="ccccccccccccccccccccscccccccccccccccccccscc" />
    </g>
  </g>
</svg>
