<?xml version="1.0" encoding="UTF-8" standalone="no"?>
<!-- Generator: Adobe Illustrator 21.0.0, SVG Export Plug-In . SVG Version: 6.00 Build 0)  -->

<svg
   xmlns:dc="http://purl.org/dc/elements/1.1/"
   xmlns:cc="http://creativecommons.org/ns#"
   xmlns:rdf="http://www.w3.org/1999/02/22-rdf-syntax-ns#"
   xmlns:svg="http://www.w3.org/2000/svg"
   xmlns="http://www.w3.org/2000/svg"
   xmlns:sodipodi="http://sodipodi.sourceforge.net/DTD/sodipodi-0.dtd"
   xmlns:inkscape="http://www.inkscape.org/namespaces/inkscape"
   version="1.1"
   x="0px"
   y="0px"
   viewBox="0 0 1400 980"
   style="enable-background:new 0 0 1400 980;"
   xml:space="preserve"
   id="svg45"
   sodipodi:docname="no.svg"
   inkscape:version="0.92.4 (5da689c313, 2019-01-14)"><metadata
   id="metadata51"><rdf:RDF><cc:Work
       rdf:about=""><dc:format>image/svg+xml</dc:format><dc:type
         rdf:resource="http://purl.org/dc/dcmitype/StillImage" /><dc:title></dc:title></cc:Work></rdf:RDF></metadata><defs
   id="defs49" /><sodipodi:namedview
   pagecolor="#ffffff"
   bordercolor="#666666"
   borderopacity="1"
   objecttolerance="10"
   gridtolerance="10"
   guidetolerance="10"
   inkscape:pageopacity="0"
   inkscape:pageshadow="2"
   inkscape:window-width="1920"
   inkscape:window-height="1017"
   id="namedview47"
   showgrid="false"
   inkscape:zoom="0.24081633"
   inkscape:cx="700"
   inkscape:cy="490"
   inkscape:window-x="-8"
   inkscape:window-y="-8"
   inkscape:window-maximized="1"
   inkscape:current-layer="g42" />
<style
   type="text/css"
   id="style2">
	.st0{fill:#B6E0DB;}
	.st1{fill:#39B54A;}
	.st2{fill:#156817;}
	.st3{fill:#FFFFFF;}
	.st4{fill:#D02C2D;}
	.st5{fill:#6B181E;}
</style>

<g
   id="Object">
</g>
<g
   id="text">
	<g
   id="g42">
		
		<g
   id="g40"
   transform="translate(-705.9322,-174.40678)">
			<circle
   class="st4"
   cx="979.79999"
   cy="446.39999"
   r="238.3"
   id="circle26"
   style="fill:#d02c2d" />
			<path
   class="st5"
   d="m 1073.6,474 c -5.5,-5.5 -5.5,-14.4 0,-19.9 l 57.6,-57.6 c 5.5,-5.5 5.5,-14.4 0,-19.9 l -41.8,-41.8 c -4,-4 -22.2,-10.8 -22.2,-10.8 -5.5,-5.5 -14.4,-5.5 -19.9,0 l -57.6,57.6 c -1.5,1.5 -3.3,2.6 -5.3,3.3 l -50.1,-50.1 c -4,-4 -22.2,-10.8 -22.2,-10.8 -5.5,-5.5 -14.4,-5.5 -19.9,0 l -41.8,41.8 c -5.5,5.5 -5.5,14.4 0,19.9 l 57.6,57.6 c 5.5,5.5 5.5,14.4 0,19.9 l -57.6,57.6 c -5.5,5.5 -5.5,14.4 0,19.9 l 41.8,41.8 c 4,4 22.2,10.8 22.2,10.8 5.5,5.5 14.4,5.5 19.9,0 l 57.6,-57.6 c 1.5,-1.5 3.3,-2.6 5.3,-3.3 l 50.1,50.1 c 4,4 22.2,10.8 22.2,10.8 5.5,5.5 14.4,5.5 19.9,0 l 41.8,-41.8 c 5.5,-5.5 5.5,-14.4 0,-19.9 z"
   id="path28"
   inkscape:connector-curvature="0"
   style="fill:#6b181e" />
			<circle
   class="st3"
   cx="979.79999"
   cy="684.59998"
   r="87.300003"
   id="circle30"
   style="fill:#ffffff" />
			<g
   id="g36">
				<path
   class="st4"
   d="m 949.7,684.9 c 4.6,2.3 10.4,14.4 12.7,18.5 2.3,4 12.6,17.1 17,21.3 4.4,4.2 8.3,26.3 8.3,26.3 1.7,4.7 10.2,1.6 12.7,-8.6 1.7,-6.8 0.9,-18.5 -3.8,-26.3 -4.1,-6.8 -2.4,-16.2 -2.4,-16.2 0,0 18.1,0.9 29.3,-1.8 11.2,-2.7 6.2,-16.7 6.2,-16.7 6.6,-8.3 -2.6,-15.4 -2.6,-15.4 7.5,-12.1 -3.8,-16.3 -3.8,-16.3 2.9,-2.1 2.1,-9.5 0,-11.3 -3.8,-3.3 -12.9,-1.9 -20,-2.5 -7.1,-0.6 -25.8,-4 -38.5,-1.2 -12.7,2.8 -23.8,5.2 -23.8,5.2 -3.3,11.7 -1.5,41.7 -1.5,41.7 0,0 5.6,1 10.2,3.3 z"
   id="path32"
   inkscape:connector-curvature="0"
   style="fill:#d02c2d" />
				<path
   class="st4"
   d="m 920.9,683.2 c 0.5,0.5 11.8,1.9 14.9,-0.7 0,0 -0.8,-17.6 -0.7,-29.3 0.1,-11.7 3,-20.1 3,-20.1 0,0 -6.3,-1.7 -11.2,1.6 -4.9,3.4 -7,11 -7.8,19.4 -0.8,8.4 1.3,28.6 1.8,29.1 z"
   id="path34"
   inkscape:connector-curvature="0"
   style="fill:#d02c2d" />
			</g>
			<path
   class="st3"
   d="m 1051.4,463.1 c -5.5,-5.5 -5.5,-14.4 0,-19.9 l 57.6,-57.6 c 5.5,-5.5 5.5,-14.4 0,-19.9 l -41.8,-41.8 c -5.5,-5.5 -14.4,-5.5 -19.9,0 l -57.6,57.6 c -5.5,5.5 -14.4,5.5 -19.9,0 L 912.3,324 c -5.5,-5.5 -14.4,-5.5 -19.9,0 l -41.8,41.8 c -5.5,5.5 -5.5,14.4 0,19.9 l 57.6,57.6 c 5.5,5.5 5.5,14.4 0,19.9 l -57.6,57.6 c -5.5,5.5 -5.5,14.4 0,19.9 l 41.8,41.8 c 5.5,5.5 14.4,5.5 19.9,0 l 57.6,-57.6 c 5.5,-5.5 14.4,-5.5 19.9,0 l 57.6,57.6 c 5.5,5.5 14.4,5.5 19.9,0 l 41.8,-41.8 c 5.5,-5.5 5.5,-14.4 0,-19.9 z"
   id="path38"
   inkscape:connector-curvature="0"
   style="fill:#ffffff" />
		</g>
	</g>
</g>
</svg>