<?xml version="1.0" encoding="UTF-8" standalone="no"?>
<!-- Generator: Adobe Illustrator 21.0.0, SVG Export Plug-In . SVG Version: 6.00 Build 0)  -->

<svg
   xmlns:dc="http://purl.org/dc/elements/1.1/"
   xmlns:cc="http://creativecommons.org/ns#"
   xmlns:rdf="http://www.w3.org/1999/02/22-rdf-syntax-ns#"
   xmlns:svg="http://www.w3.org/2000/svg"
   xmlns="http://www.w3.org/2000/svg"
   xmlns:sodipodi="http://sodipodi.sourceforge.net/DTD/sodipodi-0.dtd"
   xmlns:inkscape="http://www.inkscape.org/namespaces/inkscape"
   version="1.1"
   x="0px"
   y="0px"
   viewBox="0 0 1400 980"
   style="enable-background:new 0 0 1400 980;"
   xml:space="preserve"
   id="svg45"
   sodipodi:docname="yes.svg"
   inkscape:version="0.92.4 (5da689c313, 2019-01-14)"><metadata
   id="metadata51"><rdf:RDF><cc:Work
       rdf:about=""><dc:format>image/svg+xml</dc:format><dc:type
         rdf:resource="http://purl.org/dc/dcmitype/StillImage" /><dc:title></dc:title></cc:Work></rdf:RDF></metadata><defs
   id="defs49" /><sodipodi:namedview
   pagecolor="#ffffff"
   bordercolor="#666666"
   borderopacity="1"
   objecttolerance="10"
   gridtolerance="10"
   guidetolerance="10"
   inkscape:pageopacity="0"
   inkscape:pageshadow="2"
   inkscape:window-width="1920"
   inkscape:window-height="1017"
   id="namedview47"
   showgrid="false"
   inkscape:zoom="0.24081633"
   inkscape:cx="700"
   inkscape:cy="490"
   inkscape:window-x="-8"
   inkscape:window-y="-8"
   inkscape:window-maximized="1"
   inkscape:current-layer="g42" />
<style
   type="text/css"
   id="style2">
	.st0{fill:#B6E0DB;}
	.st1{fill:#39B54A;}
	.st2{fill:#156817;}
	.st3{fill:#FFFFFF;}
	.st4{fill:#D02C2D;}
	.st5{fill:#6B181E;}
</style>

<g
   id="Object">
</g>
<g
   id="text">
	<g
   id="g42">
		<g
   id="g24"
   transform="translate(-141.18644,-170.25424)">
			<circle
   class="st1"
   cx="420.20001"
   cy="446.39999"
   r="238.3"
   id="circle8"
   style="fill:#39b54a" />
			<path
   class="st2"
   d="m 600.8,338.6 c 0,0 -6.4,-12.8 -9.8,-16 l -6.7,-6.3 c -7.1,-6.7 -18.2,-6.5 -25.1,0.4 L 411.6,464.8 c -6.9,6.9 -18.1,7.1 -25.2,0.3 l -62.2,-59.5 c -6.3,-6.1 -16.1,-6.7 -23.2,-1.4 l -50.2,37.4 c -9.4,7 -9.7,21.1 -0.5,28.5 0,0 5.5,12.6 9.8,16 L 395,593.4 c 7.8,6.2 19,4.9 25.2,-2.8 L 602.4,362.9 c 6,-7.3 5.2,-17.8 -1.6,-24.3 z"
   id="path10"
   inkscape:connector-curvature="0"
   style="fill:#156817" />
			<path
   class="st3"
   d="m 590.9,322.6 -6.7,-6.3 c -7.1,-6.7 -18.2,-6.5 -25.1,0.4 L 411.6,464.8 c -6.9,6.9 -18.1,7.1 -25.2,0.3 l -62.2,-59.5 c -6.3,-6.1 -16.1,-6.7 -23.2,-1.4 l -50.2,37.4 c -9.4,7 -9.7,21.1 -0.5,28.5 L 385,577.5 c 7.8,6.2 19,4.9 25.2,-2.8 L 592.5,347 c 6,-7.4 5.3,-18 -1.6,-24.4 z"
   id="path12"
   inkscape:connector-curvature="0"
   style="fill:#ffffff" />
			<g
   id="g22">
				<circle
   class="st3"
   cx="420.20001"
   cy="684.59998"
   r="87.300003"
   id="circle14"
   style="fill:#ffffff" />
				<g
   id="g20">
					<path
   class="st1"
   d="m 450.3,684.4 c -4.6,-2.3 -10.4,-14.4 -12.7,-18.5 -2.3,-4 -12.6,-17.1 -17,-21.3 -4.4,-4.2 -8.3,-26.3 -8.3,-26.3 -1.7,-4.7 -10.2,-1.6 -12.7,8.6 -1.7,6.8 -0.9,18.5 3.8,26.3 4.1,6.8 2.4,16.2 2.4,16.2 0,0 -18.1,-0.9 -29.3,1.8 -11.2,2.7 -6.2,16.7 -6.2,16.7 -6.6,8.3 2.6,15.4 2.6,15.4 -7.5,12.1 3.8,16.3 3.8,16.3 -2.9,2.1 -2.1,9.5 0,11.3 3.8,3.3 12.9,1.9 20,2.5 7.1,0.6 25.8,4 38.5,1.2 12.7,-2.8 23.8,-5.2 23.8,-5.2 3.3,-11.7 1.5,-41.7 1.5,-41.7 0,0 -5.6,-1 -10.2,-3.3 z"
   id="path16"
   inkscape:connector-curvature="0"
   style="fill:#39b54a" />
					<path
   class="st1"
   d="m 479.1,686.1 c -0.5,-0.5 -11.8,-1.9 -14.9,0.7 0,0 0.8,17.6 0.7,29.3 -0.1,11.7 -3,20.1 -3,20.1 0,0 6.3,1.7 11.2,-1.6 4.9,-3.4 7,-11 7.8,-19.4 0.8,-8.5 -1.3,-28.6 -1.8,-29.1 z"
   id="path18"
   inkscape:connector-curvature="0"
   style="fill:#39b54a" />
				</g>
			</g>
		</g>
		
	</g>
</g>
</svg>